<?xml version="1.0" encoding="UTF-8"?> <svg xmlns="http://www.w3.org/2000/svg" width="48" height="48" viewBox="0 0 48 48" fill="none"> <path d="M24.0001 27.43C28.734 27.43 32.5716 23.5924 32.5716 18.8585C32.5716 14.1247 28.734 10.2871 24.0001 10.2871C19.2663 10.2871 15.4287 14.1247 15.4287 18.8585C15.4287 23.5924 19.2663 27.43 24.0001 27.43Z" stroke="white" stroke-width="3.42857" stroke-linecap="round" stroke-linejoin="round"></path> <path d="M7.2002 46.2862C7.9871 42.4109 10.0896 38.9268 13.1513 36.4243C16.2131 33.9218 20.0458 32.5547 24.0002 32.5547C27.9546 32.5547 31.7873 33.9218 34.8491 36.4243C37.9108 38.9268 40.0133 42.4109 40.8002 46.2862" stroke="white" stroke-width="3.42857" stroke-linecap="round" stroke-linejoin="round"></path> <path d="M42.8572 1.71484H5.14293C3.24938 1.71484 1.71436 3.24987 1.71436 5.14342V42.8577C1.71436 44.7512 3.24938 46.2863 5.14293 46.2863H42.8572C44.7508 46.2863 46.2858 44.7512 46.2858 42.8577V5.14342C46.2858 3.24987 44.7508 1.71484 42.8572 1.71484Z" stroke="white" stroke-width="3.42857" stroke-linecap="round" stroke-linejoin="round"></path> </svg> 