<?xml version="1.0" encoding="UTF-8"?> <svg xmlns="http://www.w3.org/2000/svg" width="48" height="48" viewBox="0 0 48 48" fill="none"> <path d="M17.143 20.5711C21.4035 20.5711 24.8573 17.1173 24.8573 12.8569C24.8573 8.59638 21.4035 5.14258 17.143 5.14258C12.8825 5.14258 9.42871 8.59638 9.42871 12.8569C9.42871 17.1173 12.8825 20.5711 17.143 20.5711Z" stroke="white" stroke-width="3.42857" stroke-linecap="round" stroke-linejoin="round"></path> <path d="M32.5715 46.2849H1.71436V42.8563C1.71436 38.7644 3.33986 34.8401 6.23328 31.9467C9.1267 29.0532 13.051 27.4277 17.1429 27.4277C21.2348 27.4277 25.1592 29.0532 28.0526 31.9467C30.946 34.8401 32.5715 38.7644 32.5715 42.8563V46.2849Z" stroke="white" stroke-width="3.42857" stroke-linecap="round" stroke-linejoin="round"></path> <path d="M30.8574 5.14258C32.9034 5.14258 34.8655 5.95533 36.3122 7.40204C37.759 8.84875 38.5717 10.8109 38.5717 12.8569C38.5717 14.9028 37.759 16.865 36.3122 18.3117C34.8655 19.7584 32.9034 20.5711 30.8574 20.5711" stroke="white" stroke-width="3.42857" stroke-linecap="round" stroke-linejoin="round"></path> <path d="M36.3428 28.0801C39.2633 29.1911 41.7777 31.1627 43.5532 33.7341C45.3287 36.3055 46.2815 39.3553 46.2856 42.4801V46.2858H41.1428" stroke="white" stroke-width="3.42857" stroke-linecap="round" stroke-linejoin="round"></path> </svg> 