<?xml version="1.0" encoding="UTF-8"?> <svg xmlns="http://www.w3.org/2000/svg" width="48" height="48" viewBox="0 0 48 48" fill="none"> <g clip-path="url(#clip0_548_35)"> <path d="M46.2857 27.4297L32.16 46.2868L22.7314 39.224" stroke="white" stroke-width="3.42857" stroke-linecap="round" stroke-linejoin="round"></path> <path d="M17.143 17.1434C21.4035 17.1434 24.8573 13.6896 24.8573 9.42913C24.8573 5.16865 21.4035 1.71484 17.143 1.71484C12.8825 1.71484 9.42871 5.16865 9.42871 9.42913C9.42871 13.6896 12.8825 17.1434 17.143 17.1434Z" stroke="white" stroke-width="3.42857" stroke-linecap="round" stroke-linejoin="round"></path> <path d="M10.2858 42.8586H1.71436V37.7158C1.71704 34.6663 2.62336 31.686 4.31886 29.1512C6.01435 26.6165 8.42297 24.6411 11.2405 23.4745C14.058 22.3078 17.1581 22.0023 20.1492 22.5965C23.1402 23.1907 25.8881 24.6579 28.0458 26.8129" stroke="white" stroke-width="3.42857" stroke-linecap="round" stroke-linejoin="round"></path> </g> <defs> <clipPath id="clip0_548_35"> <rect width="48" height="48" fill="white"></rect> </clipPath> </defs> </svg> 