<?xml version="1.0" encoding="UTF-8"?> <svg xmlns="http://www.w3.org/2000/svg" width="48" height="48" viewBox="0 0 48 48" fill="none"> <path d="M24.0001 32.5725C28.734 32.5725 32.5716 28.735 32.5716 24.0011C32.5716 19.2672 28.734 15.4297 24.0001 15.4297C19.2663 15.4297 15.4287 19.2672 15.4287 24.0011C15.4287 28.735 19.2663 32.5725 24.0001 32.5725Z" stroke="white" stroke-width="3.42857" stroke-linecap="round" stroke-linejoin="round"></path> <path d="M9.36035 45.9426C10.8903 43.4313 13.0406 41.3557 15.6045 39.9155C18.1684 38.4752 21.0596 37.7188 24.0004 37.7188C26.9411 37.7188 29.8323 38.4752 32.3962 39.9155C34.9601 41.3557 37.1104 43.4313 38.6404 45.9426" stroke="white" stroke-width="3.42857" stroke-linecap="round" stroke-linejoin="round"></path> <path d="M46.2859 23.7948C46.2891 23.319 46.1932 22.8476 46.0043 22.4108C45.8154 21.974 45.5377 21.5813 45.1887 21.2577L24.0001 1.71484L2.81158 21.2577C2.46263 21.5813 2.18488 21.974 1.99599 22.4108C1.8071 22.8476 1.71121 23.319 1.71443 23.7948V42.8577C1.71443 43.767 2.07566 44.6391 2.71864 45.2821C3.36162 45.925 4.23369 46.2863 5.14301 46.2863H42.8573C43.7666 46.2863 44.6387 45.925 45.2817 45.2821C45.9246 44.6391 46.2859 43.767 46.2859 42.8577V23.7948Z" stroke="white" stroke-width="3.42857" stroke-linecap="round" stroke-linejoin="round"></path> </svg> 